<svg width="39" height="39" viewBox="0 0 39 39" fill="none" xmlns="http://www.w3.org/2000/svg">
<path d="M0.75 38.75V30.625L10.8542 20.5208L1.53125 11.1458C1.21875 10.8333 0.984375 10.4861 0.828125 10.1041C0.671875 9.72218 0.59375 9.34024 0.59375 8.95829C0.59375 8.57635 0.671875 8.1944 0.828125 7.81246C0.984375 7.43051 1.21875 7.08329 1.53125 6.77079L6.21875 2.03121C6.53125 1.71871 6.87847 1.48433 7.26042 1.32808C7.64236 1.17183 8.02431 1.09371 8.40625 1.09371C8.7882 1.09371 9.17882 1.17183 9.57813 1.32808C9.97743 1.48433 10.3333 1.71871 10.6458 2.03121L20.0208 11.4062L30.2812 1.14579C30.4549 0.972182 30.6285 0.859334 30.8021 0.807251C30.9757 0.755167 31.1667 0.729126 31.375 0.729126C31.5833 0.729126 31.7743 0.755167 31.9479 0.807251C32.1215 0.859334 32.2951 0.972182 32.4688 1.14579L38.3542 7.03121C38.5278 7.20482 38.6406 7.37843 38.6927 7.55204C38.7448 7.72565 38.7708 7.91663 38.7708 8.12496C38.7708 8.33329 38.7448 8.52426 38.6927 8.69788C38.6406 8.87149 38.5278 9.0451 38.3542 9.21871L28.0938 19.4791L37.4688 28.8541C37.7813 29.1666 38.0156 29.5225 38.1719 29.9218C38.3281 30.3211 38.4063 30.7118 38.4063 31.0937C38.4063 31.4757 38.3281 31.8576 38.1719 32.2395C38.0156 32.6215 37.7813 32.9687 37.4688 33.2812L32.7813 37.9166C32.4688 38.2291 32.1215 38.4635 31.7396 38.6198C31.3576 38.776 30.9757 38.8541 30.5938 38.8541C30.2118 38.8541 29.8299 38.776 29.4479 38.6198C29.066 38.4635 28.7188 38.2291 28.4062 37.9166L19.0312 28.5937L8.875 38.75H0.75ZM13.0938 18.2812L17.7813 13.5937L13.9792 9.79163L11.4792 12.2916L9.29167 10.1041L11.7917 7.60413L8.45833 4.27079L3.77083 8.95829L13.0938 18.2812ZM30.4896 35.7291L35.1771 31.0416L31.8438 27.7083L29.3438 30.2083L27.1563 28.0208L29.6563 25.5208L25.8542 21.7187L21.1667 26.4062L30.4896 35.7291ZM3.875 35.625H7.52083L29.1354 14.0104L25.4896 10.3645L3.875 31.9791V35.625ZM31.3229 11.8229L34.9688 8.17704L31.3229 4.53121L27.6771 8.17704L31.3229 11.8229Z" fill="url(#paint0_linear_4904_1450)"/>
<defs>
<linearGradient id="paint0_linear_4904_1450" x1="0.59375" y1="0.729126" x2="38.7187" y2="38.9062" gradientUnits="userSpaceOnUse">
<stop stop-color="#032650"/>
<stop offset="1" stop-color="#7E57C2"/>
</linearGradient>
</defs>
</svg>
