<svg width="42" height="42" viewBox="0 0 42 42" fill="none" xmlns="http://www.w3.org/2000/svg">
<path d="M16.9479 41.0208H3.875C3.04167 41.0208 2.3125 40.7083 1.6875 40.0833C1.0625 39.4583 0.75 38.7291 0.75 37.8958V7.58329C0.75 6.74996 1.0191 6.02079 1.55729 5.39579C2.09549 4.77079 2.55556 4.45829 2.9375 4.45829H13.4583C13.7014 3.24301 14.3003 2.24475 15.2552 1.4635C16.2101 0.682251 17.3125 0.291626 18.5625 0.291626C19.8125 0.291626 20.9149 0.682251 21.8698 1.4635C22.8247 2.24475 23.4236 3.24301 23.6667 4.45829H34.1875C35.0208 4.45829 35.75 4.77079 36.375 5.39579C37 6.02079 37.3125 6.74996 37.3125 7.58329V18.1562H34.1875V7.58329H28.6667V14.3541H9.39583V7.58329H3.875V37.8958H16.9479V41.0208ZM26.7917 39.7187L18.4583 31.3854L20.6979 29.1458L26.7917 35.2395L39.2396 22.7916L41.4792 25.0312L26.7917 39.7187ZM19.5 7.37496C20.0903 7.37496 20.5851 7.17531 20.9844 6.776C21.3837 6.3767 21.5833 5.8819 21.5833 5.29163C21.5833 4.70135 21.3837 4.20656 20.9844 3.80725C20.5851 3.40795 20.0903 3.20829 19.5 3.20829C18.9097 3.20829 18.4149 3.40795 18.0156 3.80725C17.6163 4.20656 17.4167 4.70135 17.4167 5.29163C17.4167 5.8819 17.6163 6.3767 18.0156 6.776C18.4149 7.17531 18.9097 7.37496 19.5 7.37496Z" fill="url(#paint0_linear_4904_1419)"/>
<defs>
<linearGradient id="paint0_linear_4904_1419" x1="0.75" y1="0.291626" x2="41.4792" y2="41.0208" gradientUnits="userSpaceOnUse">
<stop stop-color="#032650"/>
<stop offset="1" stop-color="#45D3A1"/>
</linearGradient>
</defs>
</svg>
