<svg width="50" height="50" viewBox="0 0 50 50" fill="none" xmlns="http://www.w3.org/2000/svg">
<path d="M4.1665 41.6668V36.9793H8.64567V11.4585C8.64567 10.5904 8.94949 9.85259 9.55713 9.24495C10.1648 8.63732 10.9026 8.3335 11.7707 8.3335H44.0623V11.4585H11.7707V36.9793H23.9582V41.6668H4.1665ZM29.1144 41.6668C28.5241 41.6668 28.038 41.4325 27.6561 40.9637C27.2741 40.495 27.0832 39.9654 27.0832 39.3752V16.6147C27.0832 16.0245 27.2741 15.5384 27.6561 15.1564C28.038 14.7745 28.5241 14.5835 29.1144 14.5835H43.2811C43.9408 14.5835 44.5311 14.7658 45.0519 15.1304C45.5728 15.495 45.8332 15.9897 45.8332 16.6147V39.3752C45.8332 40.0349 45.5814 40.5818 45.078 41.0158C44.5745 41.4498 43.9755 41.6668 43.2811 41.6668H29.1144ZM30.2082 36.9793H42.7082V17.7085H30.2082V36.9793Z" fill="url(#paint0_linear_4778_2424)"/>
<defs>
<linearGradient id="paint0_linear_4778_2424" x1="4.1665" y1="8.3335" x2="36.6868" y2="48.9839" gradientUnits="userSpaceOnUse">
<stop stop-color="#032650"/>
<stop offset="1" stop-color="#F43C86"/>
</linearGradient>
</defs>
</svg>
